Coordinates
version=1
nRows=10
nColumns=24
inDegrees=yes

Units are S.I. units (second, meters, Newtons, ...)
Angles are in degrees.

endheader
time	pelvis_tilt	pelvis_list	pelvis_rotation	pelvis_tx	pelvis_ty	pelvis_tz	hip_flexion_r	hip_adduction_r	hip_rotation_r	knee_angle_r	ankle_angle_r	subtalar_angle_r	mtp_angle_r	hip_flexion_l	hip_adduction_l	hip_rotation_l	knee_angle_l	ankle_angle_l	subtalar_angle_l	mtp_angle_l	lumbar_extension	lumbar_bending	lumbar_rotation
      0.00000000000000000000	      5.25385534799877710000	     -5.39379938131343460000	     -4.70222393893408250000	      0.60835247886720289000	      1.01497461682546250000	      0.04160834475820635000	    -21.17921500515326700000	      5.09269778195487180000	      7.35597671720569490000	     -9.85070324963218620000	     13.88126486298606300000	      0.00000086842570633782	      0.00000000000000000000	     18.40751846007663100000	     -7.34082010447625160000	     -5.10951734960157200000	     -4.59153755063430500000	     -0.90370668141369148000	     -0.00000116049605205196	      0.00000000000000000000	    -17.94262462520503500000	      3.01757847643616240000	      3.94035074795396010000
      0.01666666666666666600	      4.68572453303107130000	     -5.03988422291172360000	     -4.90733925968673200000	      0.60901401980327385000	      1.01374763608036790000	      0.03934633188750448500	    -20.70875221415998600000	      4.53442073134289900000	      7.48796620235116440000	    -11.84840350633950700000	     14.10665240863452000000	      0.00000139315833957530	      0.00000000000000000000	     19.33086831788884300000	     -6.80279668249285850000	     -4.86697401836982020000	     -6.91561645765629420000	     -2.31521450773331770000	     -0.00000156169547785287	      0.00000000000000000000	    -17.23717168141983100000	      2.40918323400066430000	      3.91807284620470230000
      0.03333333333333333300	      4.29328163670292010000	     -4.67926821309319420000	     -4.86257197579304810000	      0.61057043544506162000	      1.01281527967720280000	      0.03642484828645544500	    -20.51681270501858400000	      4.00179531245782360000	      7.43991202701863230000	    -13.69324506069402000000	     13.96656779928603200000	      0.00000198059910491463	      0.00000000000000000000	     19.96902607909267500000	     -6.15850326087996610000	     -4.61756402460184660000	     -9.13306349692868840000	     -3.59386206541575910000	     -0.00000183447683096357	      0.00000000000000000000	    -16.67104169739492300000	      1.84605566293332670000	      3.74947339239476340000
      0.05000000000000000300	      3.96665995629566080000	     -4.35700244252732730000	     -5.11288289005899980000	      0.61223413128925108000	      1.01221809676614340000	      0.03404524575993733000	    -20.05925999090296200000	      3.46655096802494270000	      7.65465798175891530000	    -16.19500249207491600000	     13.69249955641589300000	      0.00000247228559331906	      0.00000000000000000000	     20.48097809845499000000	     -5.73006625526357550000	     -4.66572007607826760000	    -11.45797265987556700000	     -4.47541547427592510000	     -0.00000195047871029580	      0.00000000000000000000	    -16.22135159682275300000	      1.10342350205514280000	      3.58059865208351220000
      0.06666666666666666600	      4.10944509030000300000	     -4.05817921068264200000	     -5.11633721361692740000	      0.61482238944211509000	      1.01273435951923400000	      0.03177809186625565200	    -19.99356821573984900000	      3.02424453035479420000	      7.55073416729178430000	    -18.87646118118038900000	     12.82570592101973100000	      0.00000307013966840991	      0.00000000000000000000	     20.45553292578029000000	     -5.29654831541342120000	     -4.49215884026755670000	    -13.91742950626053400000	     -4.73640177174054600000	     -0.00000198649705381120	      0.00000000000000000000	    -16.08543483040835700000	      0.38074438171864083000	      3.46199433973088770000
      0.08333333333333332900	      4.21004688735459890000	     -3.72665749573680440000	     -4.90131319110563180000	      0.61765287500541799000	      1.01376918573035630000	      0.02886911052078737100	    -19.44526982556805500000	      2.63817024528171640000	      7.02927874845448560000	    -22.26311284060287600000	     11.50016586556483800000	      0.00000371956916197265	      0.00000000000000000000	     20.12957443995558300000	     -4.74683351058820870000	     -4.15537047987805690000	    -15.77253438062778600000	     -4.75315781318460840000	     -0.00000233272470082354	      0.00000000000000000000	    -15.94839156832390800000	     -0.28547284368926445000	      3.37627211869836770000
      0.10000000000000001000	      4.46459280703657320000	     -3.29054841981678510000	     -4.87099944804089270000	      0.62055626150183052000	      1.01531370847072330000	      0.02583134506058000500	    -18.40180651625781000000	      2.05834520596340780000	      6.33490729527173540000	    -26.67641000520732700000	      9.64904643122569180000	      0.00000451110436433590	      0.00000000000000000000	     19.55180563105652100000	     -4.15213169469224490000	     -4.13733423096131150000	    -17.67543548641798900000	     -4.22109688386000760000	     -0.00000227441965884026	      0.00000000000000000000	    -15.94257694158547200000	     -1.07425010715937530000	      3.26661575961027980000
      0.11666666666666667000	      4.70791207824866480000	     -2.96458544357712220000	     -4.47513024430914810000	      0.62317611725732824000	      1.01739104580893080000	      0.02208450274973170300	    -16.88765738509838200000	      1.59101658443272580000	      4.87578015009029380000	    -31.55455467593760200000	      6.78283536455083700000	      0.00000510787794331351	      0.00000000000000000000	     18.74993415695493200000	     -3.52525937104620280000	     -3.83089584736932440000	    -19.05203486732533200000	     -3.53963923859251570000	     -0.00000220758013358423	      0.00000000000000000000	    -15.91330207287572100000	     -1.59103956151152510000	      2.74290682892554070000
      0.13333333333333333000	      4.71155380833252300000	     -2.53776403767862040000	     -4.42794314623621780000	      0.62513944856881687000	      1.01935478443042690000	      0.01883345367172931800	    -14.39159987332418000000	      0.76749795239147600000	      3.23795197779385190000	    -37.22636406426860800000	      3.14847659221189910000	      0.00000541523272254943	      0.00000000000000000000	     17.89558948608216200000	     -2.90169153747103750000	     -3.96680054394272870000	    -19.88439073155833400000	     -2.72757660053926190000	     -0.00000199910586724673	      0.00000000000000000000	    -15.71093875594913100000	     -2.28607473441790180000	      2.48012426190697740000
      0.14999999999999999000	      4.75860034102249510000	     -2.04498248794126130000	     -4.42634665074139910000	      0.62634849930306569000	      1.02170190919642570000	      0.01502508692749583900	    -11.56446282573724500000	     -0.43998974434675597000	      1.28382354599634780000	    -42.92758369033479200000	     -1.12744301699227670000	      0.00000496357857644533	      0.00000000000000000000	     16.66197113374798300000	     -2.13301021188362050000	     -4.26259072727483530000	    -19.98217834194825600000	     -1.96522374323696440000	     -0.00000192267513376855	      0.00000000000000000000	    -15.58964360243484600000	     -2.81751323705764190000	      2.39578841502076450000
